<?xml version="1.0" encoding="UTF-8"?>
<svg xmlns="http://www.w3.org/2000/svg" xmlns:xlink="http://www.w3.org/1999/xlink" width="150pt" height="107.999999pt" viewBox="0 0 150 107.999999" version="1.2">
<defs>
<clipPath id="clip1">
  <path d="M 0.554688 0.25 L 149.804688 0.25 L 149.804688 107.277344 L 0.554688 107.277344 Z M 0.554688 0.25 "/>
</clipPath>
<clipPath id="clip2">
  <path d="M 1 0.25 L 149.804688 0.25 L 149.804688 107 L 1 107 Z M 1 0.25 "/>
</clipPath>
<clipPath id="clip3">
  <path d="M 0.554688 0.25 L 149.804688 0.25 L 149.804688 107.277344 L 0.554688 107.277344 Z M 0.554688 0.25 "/>
</clipPath>
</defs>
<g id="surface1">
<rect x="0" y="0" width="150" height="107.999999" style="fill:rgb(100%,100%,100%);fill-opacity:1;stroke:none;"/>
<rect x="0" y="0" width="150" height="107.999999" style="fill:rgb(100%,100%,100%);fill-opacity:1;stroke:none;"/>
<g clip-path="url(#clip1)" clip-rule="nonzero">
<path style=" stroke:none;fill-rule:nonzero;fill:rgb(0%,14.118958%,49.01886%);fill-opacity:1;" d="M 0.59375 16.957031 L 0.59375 33.179688 L 23.972656 33.179688 Z M 19.964844 107.277344 L 54.59375 107.277344 L 54.59375 83.25 Z M 96.128906 83.253906 L 96.128906 107.277344 L 130.75 107.277344 Z M 0.59375 74.347656 L 0.59375 90.570312 L 23.980469 74.347656 Z M 130.761719 0.25 L 96.128906 0.25 L 96.128906 24.277344 Z M 150.128906 90.574219 L 150.128906 74.347656 L 126.738281 74.347656 Z M 150.128906 33.179688 L 150.128906 16.957031 L 126.746094 33.179688 Z M 54.59375 0.25 L 19.964844 0.25 L 54.59375 24.277344 Z M 54.59375 0.25 "/>
</g>
<g clip-path="url(#clip2)" clip-rule="nonzero">
<path style=" stroke:none;fill-rule:nonzero;fill:rgb(81.17981%,10.5896%,16.859436%);fill-opacity:1;" d="M 105.019531 74.347656 L 145.359375 102.34375 C 147.316406 100.371094 148.714844 97.886719 149.472656 95.140625 L 119.503906 74.347656 Z M 54.59375 74.347656 L 45.699219 74.347656 L 5.363281 102.339844 C 7.527344 104.519531 10.300781 106.078125 13.410156 106.804688 L 54.59375 78.226562 Z M 96.128906 33.179688 L 105.023438 33.179688 L 145.359375 5.191406 C 143.195312 3.007812 140.425781 1.449219 137.3125 0.722656 L 96.128906 29.300781 Z M 45.699219 33.179688 L 5.363281 5.191406 C 3.40625 7.164062 2.003906 9.644531 1.246094 12.390625 L 31.214844 33.179688 Z M 45.699219 33.179688 "/>
</g>
<g clip-path="url(#clip3)" clip-rule="nonzero">
<path style=" stroke:none;fill-rule:nonzero;fill:rgb(93.328857%,93.328857%,93.328857%);fill-opacity:1;" d="M 150.128906 66.113281 L 87.824219 66.113281 L 87.824219 107.277344 L 96.128906 107.277344 L 96.128906 83.253906 L 130.75 107.277344 L 133.515625 107.277344 C 138.152344 107.277344 142.34375 105.378906 145.359375 102.34375 L 105.019531 74.347656 L 119.503906 74.347656 L 149.472656 95.140625 C 149.859375 93.753906 150.128906 92.320312 150.128906 90.8125 L 150.128906 90.574219 L 126.738281 74.347656 L 150.128906 74.347656 Z M 0.59375 66.113281 L 0.59375 74.347656 L 23.980469 74.347656 L 0.59375 90.570312 L 0.59375 90.8125 C 0.59375 95.304688 2.417969 99.367188 5.363281 102.339844 L 45.699219 74.347656 L 54.59375 74.347656 L 54.59375 78.226562 L 13.410156 106.800781 C 14.632812 107.089844 15.894531 107.277344 17.207031 107.277344 L 19.964844 107.277344 L 54.59375 83.25 L 54.59375 107.277344 L 62.898438 107.277344 L 62.898438 66.113281 Z M 150.128906 16.714844 C 150.128906 12.226562 148.304688 8.160156 145.359375 5.191406 L 105.023438 33.179688 L 96.128906 33.179688 L 96.128906 29.300781 L 137.3125 0.722656 C 136.089844 0.4375 134.828125 0.25 133.515625 0.25 L 130.761719 0.25 L 96.128906 24.277344 L 96.128906 0.25 L 87.824219 0.25 L 87.824219 41.414062 L 150.128906 41.414062 L 150.128906 33.179688 L 126.746094 33.179688 L 150.128906 16.957031 Z M 54.59375 0.25 L 54.59375 24.277344 L 19.964844 0.25 L 17.207031 0.25 C 12.566406 0.25 8.378906 2.148438 5.363281 5.191406 L 45.699219 33.179688 L 31.214844 33.179688 L 1.246094 12.390625 C 0.863281 13.777344 0.59375 15.210938 0.59375 16.714844 L 0.59375 16.957031 L 23.972656 33.179688 L 0.59375 33.179688 L 0.59375 41.414062 L 62.898438 41.414062 L 62.898438 0.25 Z M 54.59375 0.25 "/>
<path style=" stroke:none;fill-rule:nonzero;fill:rgb(81.17981%,10.5896%,16.859436%);fill-opacity:1;" d="M 87.824219 41.414062 L 87.824219 0.25 L 62.898438 0.25 L 62.898438 41.414062 L 0.59375 41.414062 L 0.59375 66.113281 L 62.898438 66.113281 L 62.898438 107.277344 L 87.824219 107.277344 L 87.824219 66.113281 L 150.128906 66.113281 L 150.128906 41.414062 Z M 87.824219 41.414062 "/>
</g>
</g>
</svg>
