<?xml version="1.0" encoding="UTF-8"?>
<svg xmlns="http://www.w3.org/2000/svg" xmlns:xlink="http://www.w3.org/1999/xlink" width="150pt" height="107.999999pt" viewBox="0 0 150 107.999999" version="1.2">
<defs>
<clipPath id="clip1">
  <path d="M 0.554688 0.25 L 149.804688 0.25 L 149.804688 107.277344 L 0.554688 107.277344 Z M 0.554688 0.25 "/>
</clipPath>
<clipPath id="clip2">
  <path d="M 0.554688 8 L 149.804688 8 L 149.804688 100 L 0.554688 100 Z M 0.554688 8 "/>
</clipPath>
<clipPath id="clip3">
  <path d="M 0.554688 0.25 L 76 0.25 L 76 58 L 0.554688 58 Z M 0.554688 0.25 "/>
</clipPath>
</defs>
<g id="surface1">
<rect x="0" y="0" width="150" height="107.999999" style="fill:rgb(100%,100%,100%);fill-opacity:1;stroke:none;"/>
<rect x="0" y="0" width="150" height="107.999999" style="fill:rgb(100%,100%,100%);fill-opacity:1;stroke:none;"/>
<rect x="0" y="0" width="150" height="107.999999" style="fill:rgb(100%,100%,100%);fill-opacity:1;stroke:none;"/>
<g clip-path="url(#clip1)" clip-rule="nonzero">
<path style=" stroke:none;fill-rule:nonzero;fill:rgb(69.799805%,13.729858%,20.388794%);fill-opacity:1;" d="M 147.824219 8.484375 C 144.945312 3.582031 139.648438 0.25 133.515625 0.25 L 75.359375 0.25 L 75.359375 8.484375 Z M 0.59375 82.578125 L 150.128906 82.578125 L 150.128906 90.8125 L 0.59375 90.8125 Z M 75.359375 49.648438 L 150.128906 49.648438 L 150.128906 57.878906 L 75.359375 57.878906 Z M 75.359375 33.179688 L 150.128906 33.179688 L 150.128906 41.414062 L 75.359375 41.414062 Z M 0.59375 66.113281 L 150.128906 66.113281 L 150.128906 74.347656 L 0.59375 74.347656 Z M 17.207031 107.277344 L 133.515625 107.277344 C 139.648438 107.277344 144.945312 103.949219 147.824219 99.042969 L 2.898438 99.042969 C 5.777344 103.949219 11.074219 107.277344 17.207031 107.277344 Z M 75.359375 16.714844 L 150.128906 16.714844 L 150.128906 24.949219 L 75.359375 24.949219 Z M 75.359375 16.714844 "/>
</g>
<g clip-path="url(#clip2)" clip-rule="nonzero">
<path style=" stroke:none;fill-rule:nonzero;fill:rgb(93.328857%,93.328857%,93.328857%);fill-opacity:1;" d="M 0.875 93.605469 C 0.945312 93.988281 1.027344 94.371094 1.121094 94.746094 C 1.230469 95.164062 1.363281 95.5625 1.503906 95.964844 C 1.871094 97.03125 2.320312 98.0625 2.886719 99.023438 L 2.898438 99.042969 L 147.824219 99.042969 L 147.832031 99.027344 C 148.390625 98.070312 148.839844 97.039062 149.210938 95.976562 C 149.351562 95.570312 149.488281 95.164062 149.597656 94.738281 C 149.691406 94.367188 149.773438 93.988281 149.84375 93.605469 C 150.011719 92.703125 150.128906 91.769531 150.128906 90.8125 L 0.59375 90.8125 C 0.59375 91.769531 0.710938 92.699219 0.875 93.605469 Z M 0.59375 74.347656 L 150.128906 74.347656 L 150.128906 82.578125 L 0.59375 82.578125 Z M 0.59375 57.878906 L 0.59375 66.113281 L 150.128906 66.113281 L 150.128906 57.878906 Z M 75.359375 41.414062 L 150.128906 41.414062 L 150.128906 49.648438 L 75.359375 49.648438 Z M 75.359375 24.949219 L 150.128906 24.949219 L 150.128906 33.179688 L 75.359375 33.179688 Z M 0.59375 16.714844 C 0.59375 15.757812 0.71875 14.835938 0.875 13.921875 C 0.710938 14.832031 0.59375 15.757812 0.59375 16.714844 Z M 2.898438 8.484375 L 2.886719 8.503906 Z M 1.125 12.78125 C 1.230469 12.359375 1.375 11.960938 1.507812 11.558594 C 1.367188 11.960938 1.234375 12.363281 1.125 12.78125 Z M 75.359375 16.714844 L 150.128906 16.714844 C 150.128906 15.757812 150.011719 14.828125 149.84375 13.917969 C 149.773438 13.539062 149.695312 13.160156 149.597656 12.789062 C 149.484375 12.363281 149.351562 11.953125 149.207031 11.546875 C 148.835938 10.484375 148.386719 9.457031 147.828125 8.5 C 147.832031 8.496094 147.828125 8.488281 147.824219 8.484375 L 75.359375 8.484375 Z M 75.359375 16.714844 "/>
</g>
<g clip-path="url(#clip3)" clip-rule="nonzero">
<path style=" stroke:none;fill-rule:nonzero;fill:rgb(23.529053%,23.139954%,43.139648%);fill-opacity:1;" d="M 75.359375 0.25 L 17.207031 0.25 C 8.03125 0.25 0.59375 7.621094 0.59375 16.714844 L 0.59375 57.878906 L 75.359375 57.878906 Z M 75.359375 0.25 "/>
</g>
<path style=" stroke:none;fill-rule:nonzero;fill:rgb(100%,100%,100%);fill-opacity:1;" d="M 8.90625 11.472656 L 11.472656 13.320312 L 10.492188 16.304688 L 13.054688 14.460938 L 15.621094 16.304688 L 14.640625 13.320312 L 17.207031 11.472656 L 14.035156 11.472656 L 13.054688 8.484375 L 12.078125 11.472656 Z M 17.210938 19.703125 L 19.78125 21.550781 L 18.800781 24.535156 L 21.363281 22.691406 L 23.929688 24.535156 L 22.949219 21.550781 L 25.515625 19.703125 L 22.34375 19.703125 L 21.363281 16.714844 L 20.386719 19.703125 Z M 33.828125 19.703125 L 36.394531 21.550781 L 35.414062 24.535156 L 37.976562 22.691406 L 40.542969 24.535156 L 39.5625 21.550781 L 42.132812 19.703125 L 38.957031 19.703125 L 37.976562 16.714844 L 37 19.703125 Z M 50.441406 19.703125 L 53.007812 21.550781 L 52.03125 24.535156 L 54.59375 22.691406 L 57.160156 24.535156 L 56.179688 21.550781 L 58.746094 19.703125 L 55.574219 19.703125 L 54.59375 16.714844 L 53.617188 19.703125 Z M 17.210938 36.171875 L 19.78125 38.019531 L 18.800781 41.003906 L 21.363281 39.160156 L 23.929688 41.003906 L 22.949219 38.019531 L 25.515625 36.171875 L 22.34375 36.171875 L 21.363281 33.179688 L 20.386719 36.171875 Z M 33.828125 36.171875 L 36.394531 38.019531 L 35.414062 41.003906 L 37.976562 39.160156 L 40.542969 41.003906 L 39.5625 38.019531 L 42.132812 36.171875 L 38.957031 36.171875 L 37.976562 33.179688 L 37 36.171875 Z M 50.441406 36.171875 L 53.007812 38.019531 L 52.03125 41.003906 L 54.59375 39.160156 L 57.160156 41.003906 L 56.179688 38.019531 L 58.746094 36.171875 L 55.574219 36.171875 L 54.59375 33.179688 L 53.617188 36.171875 Z M 25.519531 11.472656 L 28.085938 13.320312 L 27.105469 16.304688 L 29.667969 14.460938 L 32.238281 16.304688 L 31.257812 13.320312 L 33.824219 11.472656 L 30.648438 11.472656 L 29.667969 8.484375 L 28.695312 11.472656 Z M 42.136719 11.472656 L 44.703125 13.320312 L 43.722656 16.304688 L 46.285156 14.460938 L 48.851562 16.304688 L 47.871094 13.320312 L 50.4375 11.472656 L 47.265625 11.472656 L 46.285156 8.484375 L 45.308594 11.472656 Z M 58.75 11.472656 L 61.316406 13.320312 L 60.335938 16.304688 L 62.898438 14.460938 L 65.46875 16.304688 L 64.488281 13.320312 L 67.054688 11.472656 L 63.878906 11.472656 L 62.898438 8.484375 L 61.921875 11.472656 Z M 8.90625 27.9375 L 11.472656 29.785156 L 10.492188 32.769531 L 13.054688 30.925781 L 15.621094 32.769531 L 14.640625 29.785156 L 17.207031 27.9375 L 14.035156 27.9375 L 13.054688 24.949219 L 12.078125 27.9375 Z M 27.105469 32.769531 L 29.667969 30.925781 L 32.238281 32.769531 L 31.257812 29.785156 L 33.824219 27.9375 L 30.648438 27.9375 L 29.667969 24.949219 L 28.695312 27.9375 L 25.519531 27.9375 L 28.085938 29.785156 Z M 42.136719 27.9375 L 44.703125 29.785156 L 43.722656 32.769531 L 46.285156 30.925781 L 48.851562 32.769531 L 47.871094 29.785156 L 50.4375 27.9375 L 47.265625 27.9375 L 46.285156 24.949219 L 45.308594 27.9375 Z M 58.75 27.9375 L 61.316406 29.785156 L 60.335938 32.769531 L 62.898438 30.925781 L 65.46875 32.769531 L 64.488281 29.785156 L 67.054688 27.9375 L 63.878906 27.9375 L 62.898438 24.949219 L 61.921875 27.9375 Z M 8.90625 44.402344 L 11.472656 46.25 L 10.492188 49.234375 L 13.054688 47.390625 L 15.621094 49.234375 L 14.640625 46.25 L 17.207031 44.402344 L 14.035156 44.402344 L 13.054688 41.414062 L 12.078125 44.402344 Z M 27.105469 49.234375 L 29.667969 47.390625 L 32.238281 49.234375 L 31.257812 46.25 L 33.824219 44.402344 L 30.648438 44.402344 L 29.667969 41.414062 L 28.695312 44.402344 L 25.519531 44.402344 L 28.085938 46.25 Z M 42.136719 44.402344 L 44.703125 46.25 L 43.722656 49.234375 L 46.285156 47.390625 L 48.851562 49.234375 L 47.871094 46.25 L 50.4375 44.402344 L 47.265625 44.402344 L 46.285156 41.414062 L 45.308594 44.402344 Z M 58.75 44.402344 L 61.316406 46.25 L 60.335938 49.234375 L 62.898438 47.390625 L 65.46875 49.234375 L 64.488281 46.25 L 67.054688 44.402344 L 63.878906 44.402344 L 62.898438 41.414062 L 61.921875 44.402344 Z M 58.75 44.402344 "/>
</g>
</svg>
