<svg xmlns="http://www.w3.org/2000/svg" xmlns:xlink="http://www.w3.org/1999/xlink">

<symbol id="instagram" fill-rule="evenodd" clip-rule="evenodd" stroke-linejoin="round" stroke-miterlimit="1.414"><path d="M8 0C5.827 0 5.555.01 4.702.048 3.85.088 3.27.222 2.76.42c-.526.204-.973.478-1.417.923-.445.444-.72.89-.923 1.417-.198.51-.333 1.09-.372 1.942C.008 5.555 0 5.827 0 8s.01 2.445.048 3.298c.04.852.174 1.433.372 1.942.204.526.478.973.923 1.417.444.445.89.72 1.417.923.51.198 1.09.333 1.942.372.853.04 1.125.048 3.298.048s2.445-.01 3.298-.048c.852-.04 1.433-.174 1.942-.372.526-.204.973-.478 1.417-.923.445-.444.72-.89.923-1.417.198-.51.333-1.09.372-1.942.04-.853.048-1.125.048-3.298s-.01-2.445-.048-3.298c-.04-.852-.174-1.433-.372-1.942-.204-.526-.478-.973-.923-1.417-.444-.445-.89-.72-1.417-.923-.51-.198-1.09-.333-1.942-.372C10.445.008 10.173 0 8 0zm0 1.44c2.136 0 2.39.01 3.233.048.78.036 1.203.166 1.485.276.374.145.64.318.92.598.28.28.453.546.598.92.11.282.24.705.276 1.485.038.844.047 1.097.047 3.233s-.01 2.39-.05 3.233c-.04.78-.17 1.203-.28 1.485-.15.374-.32.64-.6.92-.28.28-.55.453-.92.598-.28.11-.71.24-1.49.276-.85.038-1.1.047-3.24.047s-2.39-.01-3.24-.05c-.78-.04-1.21-.17-1.49-.28-.38-.15-.64-.32-.92-.6-.28-.28-.46-.55-.6-.92-.11-.28-.24-.71-.28-1.49-.03-.84-.04-1.1-.04-3.23s.01-2.39.04-3.24c.04-.78.17-1.21.28-1.49.14-.38.32-.64.6-.92.28-.28.54-.46.92-.6.28-.11.7-.24 1.48-.28.85-.03 1.1-.04 3.24-.04zm0 2.452c-2.27 0-4.108 1.84-4.108 4.108 0 2.27 1.84 4.108 4.108 4.108 2.27 0 4.108-1.84 4.108-4.108 0-2.27-1.84-4.108-4.108-4.108zm0 6.775c-1.473 0-2.667-1.194-2.667-2.667 0-1.473 1.194-2.667 2.667-2.667 1.473 0 2.667 1.194 2.667 2.667 0 1.473-1.194 2.667-2.667 2.667zm5.23-6.937c0 .53-.43.96-.96.96s-.96-.43-.96-.96.43-.96.96-.96.96.43.96.96z"/></symbol>

<symbol id="pinterest" fill-rule="evenodd" clip-rule="evenodd" stroke-linejoin="round" stroke-miterlimit="1.414"><path d="M8 0C3.582 0 0 3.582 0 8c0 3.39 2.108 6.285 5.084 7.45-.07-.633-.133-1.604.028-2.295.146-.625.938-3.977.938-3.977s-.24-.48-.24-1.188c0-1.11.646-1.943 1.448-1.943.683 0 1.012.513 1.012 1.127 0 .687-.436 1.713-.662 2.664-.19.797.4 1.445 1.185 1.445 1.42 0 2.514-1.498 2.514-3.662 0-1.91-1.376-3.25-3.342-3.25-2.276 0-3.61 1.71-3.61 3.47 0 .69.263 1.43.593 1.83.066.08.075.15.057.23-.06.25-.196.8-.223.91-.035.15-.115.18-.268.11C3.516 10.46 2.89 9 2.89 7.82c0-2.52 1.834-4.84 5.287-4.84 2.774 0 4.932 1.98 4.932 4.62 0 2.76-1.74 4.98-4.16 4.98-.81 0-1.57-.42-1.84-.92l-.5 1.9c-.18.698-.67 1.57-1 2.1.75.23 1.54.357 2.37.357 4.41 0 8-3.58 8-8s-3.59-8-8-8z" fill-rule="nonzero"/></symbol>

<symbol id="rss" fill-rule="evenodd" clip-rule="evenodd" stroke-linejoin="round" stroke-miterlimit="1.414"><path d="M12.8 16C12.8 8.978 7.022 3.2 0 3.2V0c8.777 0 16 7.223 16 16h-3.2zM2.194 11.61c1.21 0 2.195.985 2.195 2.196 0 1.21-.99 2.194-2.2 2.194C.98 16 0 15.017 0 13.806c0-1.21.983-2.195 2.194-2.195zM10.606 16h-3.11c0-4.113-3.383-7.497-7.496-7.497v-3.11c5.818 0 10.606 4.79 10.606 10.607z"/></symbol>

<symbol id="youtube" fill-rule="evenodd" clip-rule="evenodd" stroke-linejoin="round" stroke-miterlimit="1.414"><path d="M0 7.345c0-1.294.16-2.59.16-2.59s.156-1.1.636-1.587c.608-.637 1.408-.617 1.764-.684C3.84 2.36 8 2.324 8 2.324s3.362.004 5.6.166c.314.038.996.04 1.604.678.48.486.636 1.588.636 1.588S16 6.05 16 7.346v1.258c0 1.296-.16 2.59-.16 2.59s-.156 1.102-.636 1.588c-.608.638-1.29.64-1.604.678-2.238.162-5.6.166-5.6.166s-4.16-.037-5.44-.16c-.356-.067-1.156-.047-1.764-.684-.48-.487-.636-1.587-.636-1.587S0 9.9 0 8.605v-1.26zm6.348 2.73V5.58l4.323 2.255-4.32 2.24z"/></symbol>

<symbol id="tumblr" fill-rule="evenodd" clip-rule="evenodd" stroke-linejoin="round" stroke-miterlimit="1.414" viewBox="0 0 320 512"><path d="M309.8 480.3c-13.6 14.5-50 31.7-97.4 31.7-120.8 0-147-88.8-147-140.6v-144H17.9c-5.5 0-10-4.5-10-10v-68c0-7.2 4.5-13.6 11.3-16 62-21.8 81.5-76 84.3-117.1.8-11 6.5-16.3 16.1-16.3h70.9c5.5 0 10 4.5 10 10v115.2h83c5.5 0 10 4.4 10 9.9v81.7c0 5.5-4.5 10-10 10h-83.4V360c0 34.2 23.7 53.6 68 35.8 4.8-1.9 9-3.2 12.7-2.2 3.5.9 5.8 3.4 7.4 7.9l22 64.3c1.8 5 3.3 10.6-.4 14.5z"></path></symbol>

</svg>