<svg xmlns="http://www.w3.org/2000/svg" xmlns:xlink="http://www.w3.org/1999/xlink">

<symbol id="instagram" fill-rule="evenodd" clip-rule="evenodd" stroke-linejoin="round" stroke-miterlimit="1.414"><path d="M8 0C5.827 0 5.555.01 4.702.048 3.85.088 3.27.222 2.76.42c-.526.204-.973.478-1.417.923-.445.444-.72.89-.923 1.417-.198.51-.333 1.09-.372 1.942C.008 5.555 0 5.827 0 8s.01 2.445.048 3.298c.04.852.174 1.433.372 1.942.204.526.478.973.923 1.417.444.445.89.72 1.417.923.51.198 1.09.333 1.942.372.853.04 1.125.048 3.298.048s2.445-.01 3.298-.048c.852-.04 1.433-.174 1.942-.372.526-.204.973-.478 1.417-.923.445-.444.72-.89.923-1.417.198-.51.333-1.09.372-1.942.04-.853.048-1.125.048-3.298s-.01-2.445-.048-3.298c-.04-.852-.174-1.433-.372-1.942-.204-.526-.478-.973-.923-1.417-.444-.445-.89-.72-1.417-.923-.51-.198-1.09-.333-1.942-.372C10.445.008 10.173 0 8 0zm0 1.44c2.136 0 2.39.01 3.233.048.78.036 1.203.166 1.485.276.374.145.64.318.92.598.28.28.453.546.598.92.11.282.24.705.276 1.485.038.844.047 1.097.047 3.233s-.01 2.39-.05 3.233c-.04.78-.17 1.203-.28 1.485-.15.374-.32.64-.6.92-.28.28-.55.453-.92.598-.28.11-.71.24-1.49.276-.85.038-1.1.047-3.24.047s-2.39-.01-3.24-.05c-.78-.04-1.21-.17-1.49-.28-.38-.15-.64-.32-.92-.6-.28-.28-.46-.55-.6-.92-.11-.28-.24-.71-.28-1.49-.03-.84-.04-1.1-.04-3.23s.01-2.39.04-3.24c.04-.78.17-1.21.28-1.49.14-.38.32-.64.6-.92.28-.28.54-.46.92-.6.28-.11.7-.24 1.48-.28.85-.03 1.1-.04 3.24-.04zm0 2.452c-2.27 0-4.108 1.84-4.108 4.108 0 2.27 1.84 4.108 4.108 4.108 2.27 0 4.108-1.84 4.108-4.108 0-2.27-1.84-4.108-4.108-4.108zm0 6.775c-1.473 0-2.667-1.194-2.667-2.667 0-1.473 1.194-2.667 2.667-2.667 1.473 0 2.667 1.194 2.667 2.667 0 1.473-1.194 2.667-2.667 2.667zm5.23-6.937c0 .53-.43.96-.96.96s-.96-.43-.96-.96.43-.96.96-.96.96.43.96.96z"/></symbol>

<symbol id="pinterest" fill-rule="evenodd" clip-rule="evenodd" stroke-linejoin="round" stroke-miterlimit="1.414"><path d="M8 0C3.582 0 0 3.582 0 8c0 3.39 2.108 6.285 5.084 7.45-.07-.633-.133-1.604.028-2.295.146-.625.938-3.977.938-3.977s-.24-.48-.24-1.188c0-1.11.646-1.943 1.448-1.943.683 0 1.012.513 1.012 1.127 0 .687-.436 1.713-.662 2.664-.19.797.4 1.445 1.185 1.445 1.42 0 2.514-1.498 2.514-3.662 0-1.91-1.376-3.25-3.342-3.25-2.276 0-3.61 1.71-3.61 3.47 0 .69.263 1.43.593 1.83.066.08.075.15.057.23-.06.25-.196.8-.223.91-.035.15-.115.18-.268.11C3.516 10.46 2.89 9 2.89 7.82c0-2.52 1.834-4.84 5.287-4.84 2.774 0 4.932 1.98 4.932 4.62 0 2.76-1.74 4.98-4.16 4.98-.81 0-1.57-.42-1.84-.92l-.5 1.9c-.18.698-.67 1.57-1 2.1.75.23 1.54.357 2.37.357 4.41 0 8-3.58 8-8s-3.59-8-8-8z" fill-rule="nonzero"/></symbol>

<symbol id="rss" fill-rule="evenodd" clip-rule="evenodd" stroke-linejoin="round" stroke-miterlimit="1.414"><path d="M12.8 16C12.8 8.978 7.022 3.2 0 3.2V0c8.777 0 16 7.223 16 16h-3.2zM2.194 11.61c1.21 0 2.195.985 2.195 2.196 0 1.21-.99 2.194-2.2 2.194C.98 16 0 15.017 0 13.806c0-1.21.983-2.195 2.194-2.195zM10.606 16h-3.11c0-4.113-3.383-7.497-7.496-7.497v-3.11c5.818 0 10.606 4.79 10.606 10.607z"/></symbol>

<symbol id="youtube" fill-rule="evenodd" clip-rule="evenodd" stroke-linejoin="round" stroke-miterlimit="1.414"><path d="M0 7.345c0-1.294.16-2.59.16-2.59s.156-1.1.636-1.587c.608-.637 1.408-.617 1.764-.684C3.84 2.36 8 2.324 8 2.324s3.362.004 5.6.166c.314.038.996.04 1.604.678.48.486.636 1.588.636 1.588S16 6.05 16 7.346v1.258c0 1.296-.16 2.59-.16 2.59s-.156 1.102-.636 1.588c-.608.638-1.29.64-1.604.678-2.238.162-5.6.166-5.6.166s-4.16-.037-5.44-.16c-.356-.067-1.156-.047-1.764-.684-.48-.487-.636-1.587-.636-1.587S0 9.9 0 8.605v-1.26zm6.348 2.73V5.58l4.323 2.255-4.32 2.24z"/></symbol>

<symbol id="tumblr" fill-rule="evenodd" clip-rule="evenodd" stroke-linejoin="round" stroke-miterlimit="1.414" viewBox="0 0 320 512"><path d="M309.8 480.3c-13.6 14.5-50 31.7-97.4 31.7-120.8 0-147-88.8-147-140.6v-144H17.9c-5.5 0-10-4.5-10-10v-68c0-7.2 4.5-13.6 11.3-16 62-21.8 81.5-76 84.3-117.1.8-11 6.5-16.3 16.1-16.3h70.9c5.5 0 10 4.5 10 10v115.2h83c5.5 0 10 4.4 10 9.9v81.7c0 5.5-4.5 10-10 10h-83.4V360c0 34.2 23.7 53.6 68 35.8 4.8-1.9 9-3.2 12.7-2.2 3.5.9 5.8 3.4 7.4 7.9l22 64.3c1.8 5 3.3 10.6-.4 14.5z"></path></symbol>

<symbol id="ravelry" fill-rule="evenodd" clip-rule="evenodd" stroke-linejoin="round" stroke-miterlimit="1.414" viewBox="0 0 32 32"><path d="M31.9225935,14.3830343 C31.843192,13.7034202 31.8108728,13.0142115 31.676409,12.3457909 C31.513217,11.5338519 31.3049377,10.7255108 31.04399,9.9399568 C30.5879302,8.56673641 29.921995,7.29385906 29.0146633,6.1605025 C28.6216459,5.66958121 28.2234414,5.17666106 27.7777556,4.73491185 C26.8480798,3.81383478 25.8118703,3.0246828 24.6810973,2.36105956 C23.5028429,1.6694522 22.2667332,1.10897041 20.952818,0.739580119 C20.2286284,0.536095643 19.4888778,0.382582797 18.7499252,0.239064276 C18.3042394,0.1527133 17.8461845,0.129526464 17.3941147,0.0759568771 C17.3733666,0.0735582388 17.3546135,0.0523702679 17.3350623,0.0395775307 C16.6276309,0.0399773037 15.9201995,0.0399773037 15.2127681,0.0399773037 C15.0543641,0.0655627781 14.8967581,0.100742805 14.7371571,0.115534408 C13.9690773,0.187093781 13.2233416,0.363793464 12.485586,0.582069542 C11.5774564,0.85031725 10.7100249,1.21930776 9.8717207,1.65705924 C8.99351621,2.11599869 8.16199501,2.65209433 7.36877805,3.24495774 C6.96339152,3.54798571 6.56239401,3.86020845 6.18733167,4.19921598 C5.51860349,4.80447236 4.8482793,5.41092806 4.22024938,6.05736106 C3.37197007,6.93086515 2.6405985,7.90071453 2.00857855,8.94612103 C1.44837905,9.8731947 0.988329177,10.8438436 0.661546135,11.8772569 C0.425735661,12.6236332 0.255361596,13.3828022 0.156009975,14.1619598 C0.0570573566,14.9391186 0.0147630923,15.7186761 0.0538653367,16.4970342 C0.098553616,17.3825314 0.180349127,18.2652303 0.344738155,19.1419326 C0.572568579,20.3568428 0.928877805,21.5237803 1.44438903,22.6451437 C1.87092269,23.5722174 2.40399002,24.4309299 3.02204489,25.2432687 C3.54034913,25.9240821 4.1272818,26.5397326 4.75451372,27.1110083 C5.59561097,27.8769734 6.51690773,28.5413962 7.50084788,29.1214669 C8.66753117,29.8094763 9.89206983,30.3575651 11.1752618,30.7829236 C12.0482793,31.0723593 12.9416459,31.2786422 13.8465835,31.4293566 C14.245586,31.495719 14.6533666,31.5117099 15.0567581,31.5524867 C15.0838903,31.5552851 15.1090274,31.5768729 15.1349626,31.5892659 C15.842394,31.5892659 16.5498254,31.5892659 17.2572569,31.5892659 C17.4220449,31.5636804 17.5860349,31.5277008 17.75202,31.5141085 C18.8257357,31.4265582 19.8623441,31.1635076 20.8734165,30.8097084 C22.0041895,30.4135334 23.0886783,29.9074207 24.0909726,29.2441972 C24.7317706,28.8204378 25.3657855,28.3846852 25.9798504,27.9233471 C26.3600998,27.6375094 26.7020449,27.2989016 27.0515711,26.9730866 C27.3121197,26.7300246 27.5618953,26.4749694 27.8080798,26.2171158 C28.6012968,25.3843885 29.285985,24.4685085 29.8737157,23.4802696 C30.5009476,22.4256683 31.0144638,21.3174974 31.3396509,20.1329699 C31.527581,19.4485585 31.6648379,18.7497552 31.8008978,18.052551 C31.8687282,17.705548 31.8830923,17.3477512 31.9237905,16.9951514 C31.9261845,16.9743632 31.9473317,16.9555738 31.9600998,16.9359849 C31.9600998,16.1240459 31.9600998,15.3121069 31.9600998,14.5001678 C31.9473317,14.4609901 31.9273815,14.4230116 31.9225935,14.3830343 Z M21.3326683,14.3074772 C21.3326683,14.3074772 20.2433915,14.1115884 19.4613466,14.1115884 C17.6738155,14.1115884 17.2548628,15.0910324 17.2548628,16.5462062 L17.2548628,22.702711 L12.4229426,22.702711 L12.4229426,10.1658286 L17.2548628,10.1658286 L17.2548628,12.264637 C17.8413965,10.5016379 19.0144638,9.88598744 21.3326683,9.88598744 L21.3326683,14.3074772 L21.3326683,14.3074772 Z" id="Shape"></path></symbol>

</svg>
